<svg width="710" height="115" xmlns="http://www.w3.org/2000/svg">
<rect width="710" height="115" fill="#0a0a0a" rx="6"/>
<text x="4" y="12" fill="#4a4a4a" font-family="Arial,sans-serif" font-size="10">Mar</text>
<text x="30" y="12" fill="#4a4a4a" font-family="Arial,sans-serif" font-size="10">Apr</text>
<text x="82" y="12" fill="#4a4a4a" font-family="Arial,sans-serif" font-size="10">May</text>
<text x="147" y="12" fill="#4a4a4a" font-family="Arial,sans-serif" font-size="10">Jun</text>
<text x="199" y="12" fill="#4a4a4a" font-family="Arial,sans-serif" font-size="10">Jul</text>
<text x="251" y="12" fill="#4a4a4a" font-family="Arial,sans-serif" font-size="10">Aug</text>
<text x="316" y="12" fill="#4a4a4a" font-family="Arial,sans-serif" font-size="10">Sep</text>
<text x="368" y="12" fill="#4a4a4a" font-family="Arial,sans-serif" font-size="10">Oct</text>
<text x="420" y="12" fill="#4a4a4a" font-family="Arial,sans-serif" font-size="10">Nov</text>
<text x="485" y="12" fill="#4a4a4a" font-family="Arial,sans-serif" font-size="10">Dec</text>
<text x="537" y="12" fill="#4a4a4a" font-family="Arial,sans-serif" font-size="10">Jan</text>
<text x="602" y="12" fill="#4a4a4a" font-family="Arial,sans-serif" font-size="10">Feb</text>
<text x="654" y="12" fill="#4a4a4a" font-family="Arial,sans-serif" font-size="10">Mar</text>
<rect x="4" y="98" width="11" height="11" fill="#161b16" rx="2"/>
<rect x="17" y="20" width="11" height="11" fill="#161b16" rx="2"/>
<rect x="17" y="33" width="11" height="11" fill="#161b16" rx="2"/>
<rect x="17" y="46" width="11" height="11" fill="#161b16" rx="2"/>
<rect x="17" y="59" width="11" height="11" fill="#161b16" rx="2"/>
<rect x="17" y="72" width="11" height="11" fill="#161b16" rx="2"/>
<rect x="17" y="85" width="11" height="11" fill="#161b16" rx="2"/>
<rect x="17" y="98" width="11" height="11" fill="#161b16" rx="2"/>
<rect x="30" y="20" width="11" height="11" fill="#161b16" rx="2"/>
<rect x="30" y="33" width="11" height="11" fill="#161b16" rx="2"/>
<rect x="30" y="46" width="11" height="11" fill="#161b16" rx="2"/>
<rect x="30" y="59" width="11" height="11" fill="#161b16" rx="2"/>
<rect x="30" y="72" width="11" height="11" fill="#161b16" rx="2"/>
<rect x="30" y="85" width="11" height="11" fill="#161b16" rx="2"/>
<rect x="30" y="98" width="11" height="11" fill="#161b16" rx="2"/>
<rect x="43" y="20" width="11" height="11" fill="#161b16" rx="2"/>
<rect x="43" y="33" width="11" height="11" fill="#161b16" rx="2"/>
<rect x="43" y="46" width="11" height="11" fill="#161b16" rx="2"/>
<rect x="43" y="59" width="11" height="11" fill="#161b16" rx="2"/>
<rect x="43" y="72" width="11" height="11" fill="#161b16" rx="2"/>
<rect x="43" y="85" width="11" height="11" fill="#161b16" rx="2"/>
<rect x="43" y="98" width="11" height="11" fill="#161b16" rx="2"/>
<rect x="56" y="20" width="11" height="11" fill="#161b16" rx="2"/>
<rect x="56" y="33" width="11" height="11" fill="#161b16" rx="2"/>
<rect x="56" y="46" width="11" height="11" fill="#161b16" rx="2"/>
<rect x="56" y="59" width="11" height="11" fill="#161b16" rx="2"/>
<rect x="56" y="72" width="11" height="11" fill="#161b16" rx="2"/>
<rect x="56" y="85" width="11" height="11" fill="#161b16" rx="2"/>
<rect x="56" y="98" width="11" height="11" fill="#161b16" rx="2"/>
<rect x="69" y="20" width="11" height="11" fill="#161b16" rx="2"/>
<rect x="69" y="33" width="11" height="11" fill="#161b16" rx="2"/>
<rect x="69" y="46" width="11" height="11" fill="#161b16" rx="2"/>
<rect x="69" y="59" width="11" height="11" fill="#161b16" rx="2"/>
<rect x="69" y="72" width="11" height="11" fill="#161b16" rx="2"/>
<rect x="69" y="85" width="11" height="11" fill="#161b16" rx="2"/>
<rect x="69" y="98" width="11" height="11" fill="#161b16" rx="2"/>
<rect x="82" y="20" width="11" height="11" fill="#161b16" rx="2"/>
<rect x="82" y="33" width="11" height="11" fill="#161b16" rx="2"/>
<rect x="82" y="46" width="11" height="11" fill="#161b16" rx="2"/>
<rect x="82" y="59" width="11" height="11" fill="#161b16" rx="2"/>
<rect x="82" y="72" width="11" height="11" fill="#161b16" rx="2"/>
<rect x="82" y="85" width="11" height="11" fill="#161b16" rx="2"/>
<rect x="82" y="98" width="11" height="11" fill="#161b16" rx="2"/>
<rect x="95" y="20" width="11" height="11" fill="#161b16" rx="2"/>
<rect x="95" y="33" width="11" height="11" fill="#161b16" rx="2"/>
<rect x="95" y="46" width="11" height="11" fill="#161b16" rx="2"/>
<rect x="95" y="59" width="11" height="11" fill="#161b16" rx="2"/>
<rect x="95" y="72" width="11" height="11" fill="#161b16" rx="2"/>
<rect x="95" y="85" width="11" height="11" fill="#161b16" rx="2"/>
<rect x="95" y="98" width="11" height="11" fill="#161b16" rx="2"/>
<rect x="108" y="20" width="11" height="11" fill="#161b16" rx="2"/>
<rect x="108" y="33" width="11" height="11" fill="#161b16" rx="2"/>
<rect x="108" y="46" width="11" height="11" fill="#161b16" rx="2"/>
<rect x="108" y="59" width="11" height="11" fill="#161b16" rx="2"/>
<rect x="108" y="72" width="11" height="11" fill="#161b16" rx="2"/>
<rect x="108" y="85" width="11" height="11" fill="#161b16" rx="2"/>
<rect x="108" y="98" width="11" height="11" fill="#161b16" rx="2"/>
<rect x="121" y="20" width="11" height="11" fill="#161b16" rx="2"/>
<rect x="121" y="33" width="11" height="11" fill="#161b16" rx="2"/>
<rect x="121" y="46" width="11" height="11" fill="#161b16" rx="2"/>
<rect x="121" y="59" width="11" height="11" fill="#161b16" rx="2"/>
<rect x="121" y="72" width="11" height="11" fill="#161b16" rx="2"/>
<rect x="121" y="85" width="11" height="11" fill="#161b16" rx="2"/>
<rect x="121" y="98" width="11" height="11" fill="#161b16" rx="2"/>
<rect x="134" y="20" width="11" height="11" fill="#161b16" rx="2"/>
<rect x="134" y="33" width="11" height="11" fill="#161b16" rx="2"/>
<rect x="134" y="46" width="11" height="11" fill="#161b16" rx="2"/>
<rect x="134" y="59" width="11" height="11" fill="#161b16" rx="2"/>
<rect x="134" y="72" width="11" height="11" fill="#161b16" rx="2"/>
<rect x="134" y="85" width="11" height="11" fill="#161b16" rx="2"/>
<rect x="134" y="98" width="11" height="11" fill="#161b16" rx="2"/>
<rect x="147" y="20" width="11" height="11" fill="#161b16" rx="2"/>
<rect x="147" y="33" width="11" height="11" fill="#161b16" rx="2"/>
<rect x="147" y="46" width="11" height="11" fill="#161b16" rx="2"/>
<rect x="147" y="59" width="11" height="11" fill="#161b16" rx="2"/>
<rect x="147" y="72" width="11" height="11" fill="#161b16" rx="2"/>
<rect x="147" y="85" width="11" height="11" fill="#161b16" rx="2"/>
<rect x="147" y="98" width="11" height="11" fill="#161b16" rx="2"/>
<rect x="160" y="20" width="11" height="11" fill="#161b16" rx="2"/>
<rect x="160" y="33" width="11" height="11" fill="#161b16" rx="2"/>
<rect x="160" y="46" width="11" height="11" fill="#161b16" rx="2"/>
<rect x="160" y="59" width="11" height="11" fill="#161b16" rx="2"/>
<rect x="160" y="72" width="11" height="11" fill="#161b16" rx="2"/>
<rect x="160" y="85" width="11" height="11" fill="#161b16" rx="2"/>
<rect x="160" y="98" width="11" height="11" fill="#161b16" rx="2"/>
<rect x="173" y="20" width="11" height="11" fill="#161b16" rx="2"/>
<rect x="173" y="33" width="11" height="11" fill="#161b16" rx="2"/>
<rect x="173" y="46" width="11" height="11" fill="#161b16" rx="2"/>
<rect x="173" y="59" width="11" height="11" fill="#161b16" rx="2"/>
<rect x="173" y="72" width="11" height="11" fill="#161b16" rx="2"/>
<rect x="173" y="85" width="11" height="11" fill="#161b16" rx="2"/>
<rect x="173" y="98" width="11" height="11" fill="#161b16" rx="2"/>
<rect x="186" y="20" width="11" height="11" fill="#161b16" rx="2"/>
<rect x="186" y="33" width="11" height="11" fill="#161b16" rx="2"/>
<rect x="186" y="46" width="11" height="11" fill="#161b16" rx="2"/>
<rect x="186" y="59" width="11" height="11" fill="#161b16" rx="2"/>
<rect x="186" y="72" width="11" height="11" fill="#161b16" rx="2"/>
<rect x="186" y="85" width="11" height="11" fill="#161b16" rx="2"/>
<rect x="186" y="98" width="11" height="11" fill="#161b16" rx="2"/>
<rect x="199" y="20" width="11" height="11" fill="#161b16" rx="2"/>
<rect x="199" y="33" width="11" height="11" fill="#161b16" rx="2"/>
<rect x="199" y="46" width="11" height="11" fill="#161b16" rx="2"/>
<rect x="199" y="59" width="11" height="11" fill="#161b16" rx="2"/>
<rect x="199" y="72" width="11" height="11" fill="#161b16" rx="2"/>
<rect x="199" y="85" width="11" height="11" fill="#161b16" rx="2"/>
<rect x="199" y="98" width="11" height="11" fill="#161b16" rx="2"/>
<rect x="212" y="20" width="11" height="11" fill="#161b16" rx="2"/>
<rect x="212" y="33" width="11" height="11" fill="#161b16" rx="2"/>
<rect x="212" y="46" width="11" height="11" fill="#161b16" rx="2"/>
<rect x="212" y="59" width="11" height="11" fill="#161b16" rx="2"/>
<rect x="212" y="72" width="11" height="11" fill="#161b16" rx="2"/>
<rect x="212" y="85" width="11" height="11" fill="#161b16" rx="2"/>
<rect x="212" y="98" width="11" height="11" fill="#161b16" rx="2"/>
<rect x="225" y="20" width="11" height="11" fill="#161b16" rx="2"/>
<rect x="225" y="33" width="11" height="11" fill="#161b16" rx="2"/>
<rect x="225" y="46" width="11" height="11" fill="#161b16" rx="2"/>
<rect x="225" y="59" width="11" height="11" fill="#161b16" rx="2"/>
<rect x="225" y="72" width="11" height="11" fill="#161b16" rx="2"/>
<rect x="225" y="85" width="11" height="11" fill="#161b16" rx="2"/>
<rect x="225" y="98" width="11" height="11" fill="#161b16" rx="2"/>
<rect x="238" y="20" width="11" height="11" fill="#161b16" rx="2"/>
<rect x="238" y="33" width="11" height="11" fill="#161b16" rx="2"/>
<rect x="238" y="46" width="11" height="11" fill="#161b16" rx="2"/>
<rect x="238" y="59" width="11" height="11" fill="#161b16" rx="2"/>
<rect x="238" y="72" width="11" height="11" fill="#161b16" rx="2"/>
<rect x="238" y="85" width="11" height="11" fill="#161b16" rx="2"/>
<rect x="238" y="98" width="11" height="11" fill="#161b16" rx="2"/>
<rect x="251" y="20" width="11" height="11" fill="#161b16" rx="2"/>
<rect x="251" y="33" width="11" height="11" fill="#161b16" rx="2"/>
<rect x="251" y="46" width="11" height="11" fill="#161b16" rx="2"/>
<rect x="251" y="59" width="11" height="11" fill="#161b16" rx="2"/>
<rect x="251" y="72" width="11" height="11" fill="#161b16" rx="2"/>
<rect x="251" y="85" width="11" height="11" fill="#161b16" rx="2"/>
<rect x="251" y="98" width="11" height="11" fill="#161b16" rx="2"/>
<rect x="264" y="20" width="11" height="11" fill="#161b16" rx="2"/>
<rect x="264" y="33" width="11" height="11" fill="#161b16" rx="2"/>
<rect x="264" y="46" width="11" height="11" fill="#161b16" rx="2"/>
<rect x="264" y="59" width="11" height="11" fill="#161b16" rx="2"/>
<rect x="264" y="72" width="11" height="11" fill="#161b16" rx="2"/>
<rect x="264" y="85" width="11" height="11" fill="#161b16" rx="2"/>
<rect x="264" y="98" width="11" height="11" fill="#161b16" rx="2"/>
<rect x="277" y="20" width="11" height="11" fill="#161b16" rx="2"/>
<rect x="277" y="33" width="11" height="11" fill="#161b16" rx="2"/>
<rect x="277" y="46" width="11" height="11" fill="#161b16" rx="2"/>
<rect x="277" y="59" width="11" height="11" fill="#161b16" rx="2"/>
<rect x="277" y="72" width="11" height="11" fill="#161b16" rx="2"/>
<rect x="277" y="85" width="11" height="11" fill="#161b16" rx="2"/>
<rect x="277" y="98" width="11" height="11" fill="#161b16" rx="2"/>
<rect x="290" y="20" width="11" height="11" fill="#161b16" rx="2"/>
<rect x="290" y="33" width="11" height="11" fill="#161b16" rx="2"/>
<rect x="290" y="46" width="11" height="11" fill="#161b16" rx="2"/>
<rect x="290" y="59" width="11" height="11" fill="#161b16" rx="2"/>
<rect x="290" y="72" width="11" height="11" fill="#161b16" rx="2"/>
<rect x="290" y="85" width="11" height="11" fill="#161b16" rx="2"/>
<rect x="290" y="98" width="11" height="11" fill="#161b16" rx="2"/>
<rect x="303" y="20" width="11" height="11" fill="#161b16" rx="2"/>
<rect x="303" y="33" width="11" height="11" fill="#161b16" rx="2"/>
<rect x="303" y="46" width="11" height="11" fill="#161b16" rx="2"/>
<rect x="303" y="59" width="11" height="11" fill="#161b16" rx="2"/>
<rect x="303" y="72" width="11" height="11" fill="#161b16" rx="2"/>
<rect x="303" y="85" width="11" height="11" fill="#161b16" rx="2"/>
<rect x="303" y="98" width="11" height="11" fill="#161b16" rx="2"/>
<rect x="316" y="20" width="11" height="11" fill="#161b16" rx="2"/>
<rect x="316" y="33" width="11" height="11" fill="#161b16" rx="2"/>
<rect x="316" y="46" width="11" height="11" fill="#161b16" rx="2"/>
<rect x="316" y="59" width="11" height="11" fill="#161b16" rx="2"/>
<rect x="316" y="72" width="11" height="11" fill="#161b16" rx="2"/>
<rect x="316" y="85" width="11" height="11" fill="#161b16" rx="2"/>
<rect x="316" y="98" width="11" height="11" fill="#161b16" rx="2"/>
<rect x="329" y="20" width="11" height="11" fill="#161b16" rx="2"/>
<rect x="329" y="33" width="11" height="11" fill="#161b16" rx="2"/>
<rect x="329" y="46" width="11" height="11" fill="#161b16" rx="2"/>
<rect x="329" y="59" width="11" height="11" fill="#161b16" rx="2"/>
<rect x="329" y="72" width="11" height="11" fill="#161b16" rx="2"/>
<rect x="329" y="85" width="11" height="11" fill="#161b16" rx="2"/>
<rect x="329" y="98" width="11" height="11" fill="#161b16" rx="2"/>
<rect x="342" y="20" width="11" height="11" fill="#161b16" rx="2"/>
<rect x="342" y="33" width="11" height="11" fill="#161b16" rx="2"/>
<rect x="342" y="46" width="11" height="11" fill="#161b16" rx="2"/>
<rect x="342" y="59" width="11" height="11" fill="#161b16" rx="2"/>
<rect x="342" y="72" width="11" height="11" fill="#161b16" rx="2"/>
<rect x="342" y="85" width="11" height="11" fill="#161b16" rx="2"/>
<rect x="342" y="98" width="11" height="11" fill="#161b16" rx="2"/>
<rect x="355" y="20" width="11" height="11" fill="#161b16" rx="2"/>
<rect x="355" y="33" width="11" height="11" fill="#161b16" rx="2"/>
<rect x="355" y="46" width="11" height="11" fill="#161b16" rx="2"/>
<rect x="355" y="59" width="11" height="11" fill="#161b16" rx="2"/>
<rect x="355" y="72" width="11" height="11" fill="#161b16" rx="2"/>
<rect x="355" y="85" width="11" height="11" fill="#161b16" rx="2"/>
<rect x="355" y="98" width="11" height="11" fill="#161b16" rx="2"/>
<rect x="368" y="20" width="11" height="11" fill="#161b16" rx="2"/>
<rect x="368" y="33" width="11" height="11" fill="#161b16" rx="2"/>
<rect x="368" y="46" width="11" height="11" fill="#161b16" rx="2"/>
<rect x="368" y="59" width="11" height="11" fill="#161b16" rx="2"/>
<rect x="368" y="72" width="11" height="11" fill="#161b16" rx="2"/>
<rect x="368" y="85" width="11" height="11" fill="#161b16" rx="2"/>
<rect x="368" y="98" width="11" height="11" fill="#161b16" rx="2"/>
<rect x="381" y="20" width="11" height="11" fill="#161b16" rx="2"/>
<rect x="381" y="33" width="11" height="11" fill="#161b16" rx="2"/>
<rect x="381" y="46" width="11" height="11" fill="#161b16" rx="2"/>
<rect x="381" y="59" width="11" height="11" fill="#161b16" rx="2"/>
<rect x="381" y="72" width="11" height="11" fill="#161b16" rx="2"/>
<rect x="381" y="85" width="11" height="11" fill="#161b16" rx="2"/>
<rect x="381" y="98" width="11" height="11" fill="#161b16" rx="2"/>
<rect x="394" y="20" width="11" height="11" fill="#161b16" rx="2"/>
<rect x="394" y="33" width="11" height="11" fill="#161b16" rx="2"/>
<rect x="394" y="46" width="11" height="11" fill="#161b16" rx="2"/>
<rect x="394" y="59" width="11" height="11" fill="#161b16" rx="2"/>
<rect x="394" y="72" width="11" height="11" fill="#161b16" rx="2"/>
<rect x="394" y="85" width="11" height="11" fill="#161b16" rx="2"/>
<rect x="394" y="98" width="11" height="11" fill="#161b16" rx="2"/>
<rect x="407" y="20" width="11" height="11" fill="#161b16" rx="2"/>
<rect x="407" y="33" width="11" height="11" fill="#161b16" rx="2"/>
<rect x="407" y="46" width="11" height="11" fill="#161b16" rx="2"/>
<rect x="407" y="59" width="11" height="11" fill="#161b16" rx="2"/>
<rect x="407" y="72" width="11" height="11" fill="#161b16" rx="2"/>
<rect x="407" y="85" width="11" height="11" fill="#161b16" rx="2"/>
<rect x="407" y="98" width="11" height="11" fill="#161b16" rx="2"/>
<rect x="420" y="20" width="11" height="11" fill="#161b16" rx="2"/>
<rect x="420" y="33" width="11" height="11" fill="#161b16" rx="2"/>
<rect x="420" y="46" width="11" height="11" fill="#161b16" rx="2"/>
<rect x="420" y="59" width="11" height="11" fill="#161b16" rx="2"/>
<rect x="420" y="72" width="11" height="11" fill="#161b16" rx="2"/>
<rect x="420" y="85" width="11" height="11" fill="#161b16" rx="2"/>
<rect x="420" y="98" width="11" height="11" fill="#161b16" rx="2"/>
<rect x="433" y="20" width="11" height="11" fill="#161b16" rx="2"/>
<rect x="433" y="33" width="11" height="11" fill="#161b16" rx="2"/>
<rect x="433" y="46" width="11" height="11" fill="#161b16" rx="2"/>
<rect x="433" y="59" width="11" height="11" fill="#161b16" rx="2"/>
<rect x="433" y="72" width="11" height="11" fill="#161b16" rx="2"/>
<rect x="433" y="85" width="11" height="11" fill="#161b16" rx="2"/>
<rect x="433" y="98" width="11" height="11" fill="#161b16" rx="2"/>
<rect x="446" y="20" width="11" height="11" fill="#161b16" rx="2"/>
<rect x="446" y="33" width="11" height="11" fill="#161b16" rx="2"/>
<rect x="446" y="46" width="11" height="11" fill="#161b16" rx="2"/>
<rect x="446" y="59" width="11" height="11" fill="#161b16" rx="2"/>
<rect x="446" y="72" width="11" height="11" fill="#161b16" rx="2"/>
<rect x="446" y="85" width="11" height="11" fill="#161b16" rx="2"/>
<rect x="446" y="98" width="11" height="11" fill="#161b16" rx="2"/>
<rect x="459" y="20" width="11" height="11" fill="#161b16" rx="2"/>
<rect x="459" y="33" width="11" height="11" fill="#161b16" rx="2"/>
<rect x="459" y="46" width="11" height="11" fill="#161b16" rx="2"/>
<rect x="459" y="59" width="11" height="11" fill="#161b16" rx="2"/>
<rect x="459" y="72" width="11" height="11" fill="#161b16" rx="2"/>
<rect x="459" y="85" width="11" height="11" fill="#161b16" rx="2"/>
<rect x="459" y="98" width="11" height="11" fill="#161b16" rx="2"/>
<rect x="472" y="20" width="11" height="11" fill="#161b16" rx="2"/>
<rect x="472" y="33" width="11" height="11" fill="#161b16" rx="2"/>
<rect x="472" y="46" width="11" height="11" fill="#161b16" rx="2"/>
<rect x="472" y="59" width="11" height="11" fill="#161b16" rx="2"/>
<rect x="472" y="72" width="11" height="11" fill="#161b16" rx="2"/>
<rect x="472" y="85" width="11" height="11" fill="#161b16" rx="2"/>
<rect x="472" y="98" width="11" height="11" fill="#161b16" rx="2"/>
<rect x="485" y="20" width="11" height="11" fill="#161b16" rx="2"/>
<rect x="485" y="33" width="11" height="11" fill="#161b16" rx="2"/>
<rect x="485" y="46" width="11" height="11" fill="#161b16" rx="2"/>
<rect x="485" y="59" width="11" height="11" fill="#161b16" rx="2"/>
<rect x="485" y="72" width="11" height="11" fill="#161b16" rx="2"/>
<rect x="485" y="85" width="11" height="11" fill="#161b16" rx="2"/>
<rect x="485" y="98" width="11" height="11" fill="#161b16" rx="2"/>
<rect x="498" y="20" width="11" height="11" fill="#161b16" rx="2"/>
<rect x="498" y="33" width="11" height="11" fill="#161b16" rx="2"/>
<rect x="498" y="46" width="11" height="11" fill="#161b16" rx="2"/>
<rect x="498" y="59" width="11" height="11" fill="#161b16" rx="2"/>
<rect x="498" y="72" width="11" height="11" fill="#161b16" rx="2"/>
<rect x="498" y="85" width="11" height="11" fill="#161b16" rx="2"/>
<rect x="498" y="98" width="11" height="11" fill="#161b16" rx="2"/>
<rect x="511" y="20" width="11" height="11" fill="#161b16" rx="2"/>
<rect x="511" y="33" width="11" height="11" fill="#161b16" rx="2"/>
<rect x="511" y="46" width="11" height="11" fill="#161b16" rx="2"/>
<rect x="511" y="59" width="11" height="11" fill="#161b16" rx="2"/>
<rect x="511" y="72" width="11" height="11" fill="#161b16" rx="2"/>
<rect x="511" y="85" width="11" height="11" fill="#161b16" rx="2"/>
<rect x="511" y="98" width="11" height="11" fill="#161b16" rx="2"/>
<rect x="524" y="20" width="11" height="11" fill="#161b16" rx="2"/>
<rect x="524" y="33" width="11" height="11" fill="#161b16" rx="2"/>
<rect x="524" y="46" width="11" height="11" fill="#161b16" rx="2"/>
<rect x="524" y="59" width="11" height="11" fill="#161b16" rx="2"/>
<rect x="524" y="72" width="11" height="11" fill="#161b16" rx="2"/>
<rect x="524" y="85" width="11" height="11" fill="#161b16" rx="2"/>
<rect x="524" y="98" width="11" height="11" fill="#161b16" rx="2"/>
<rect x="537" y="20" width="11" height="11" fill="#161b16" rx="2"/>
<rect x="537" y="33" width="11" height="11" fill="#161b16" rx="2"/>
<rect x="537" y="46" width="11" height="11" fill="#161b16" rx="2"/>
<rect x="537" y="59" width="11" height="11" fill="#161b16" rx="2"/>
<rect x="537" y="72" width="11" height="11" fill="#161b16" rx="2"/>
<rect x="537" y="85" width="11" height="11" fill="#161b16" rx="2"/>
<rect x="537" y="98" width="11" height="11" fill="#161b16" rx="2"/>
<rect x="550" y="20" width="11" height="11" fill="#161b16" rx="2"/>
<rect x="550" y="33" width="11" height="11" fill="#161b16" rx="2"/>
<rect x="550" y="46" width="11" height="11" fill="#161b16" rx="2"/>
<rect x="550" y="59" width="11" height="11" fill="#161b16" rx="2"/>
<rect x="550" y="72" width="11" height="11" fill="#161b16" rx="2"/>
<rect x="550" y="85" width="11" height="11" fill="#161b16" rx="2"/>
<rect x="550" y="98" width="11" height="11" fill="#161b16" rx="2"/>
<rect x="563" y="20" width="11" height="11" fill="#161b16" rx="2"/>
<rect x="563" y="33" width="11" height="11" fill="#161b16" rx="2"/>
<rect x="563" y="46" width="11" height="11" fill="#161b16" rx="2"/>
<rect x="563" y="59" width="11" height="11" fill="#161b16" rx="2"/>
<rect x="563" y="72" width="11" height="11" fill="#161b16" rx="2"/>
<rect x="563" y="85" width="11" height="11" fill="#161b16" rx="2"/>
<rect x="563" y="98" width="11" height="11" fill="#161b16" rx="2"/>
<rect x="576" y="20" width="11" height="11" fill="#161b16" rx="2"/>
<rect x="576" y="33" width="11" height="11" fill="#161b16" rx="2"/>
<rect x="576" y="46" width="11" height="11" fill="#161b16" rx="2"/>
<rect x="576" y="59" width="11" height="11" fill="#161b16" rx="2"/>
<rect x="576" y="72" width="11" height="11" fill="#161b16" rx="2"/>
<rect x="576" y="85" width="11" height="11" fill="#161b16" rx="2"/>
<rect x="576" y="98" width="11" height="11" fill="#161b16" rx="2"/>
<rect x="589" y="20" width="11" height="11" fill="#161b16" rx="2"/>
<rect x="589" y="33" width="11" height="11" fill="#161b16" rx="2"/>
<rect x="589" y="46" width="11" height="11" fill="#161b16" rx="2"/>
<rect x="589" y="59" width="11" height="11" fill="#161b16" rx="2"/>
<rect x="589" y="72" width="11" height="11" fill="#161b16" rx="2"/>
<rect x="589" y="85" width="11" height="11" fill="#161b16" rx="2"/>
<rect x="589" y="98" width="11" height="11" fill="#161b16" rx="2"/>
<rect x="602" y="20" width="11" height="11" fill="#161b16" rx="2"/>
<rect x="602" y="33" width="11" height="11" fill="#161b16" rx="2"/>
<rect x="602" y="46" width="11" height="11" fill="#161b16" rx="2"/>
<rect x="602" y="59" width="11" height="11" fill="#161b16" rx="2"/>
<rect x="602" y="72" width="11" height="11" fill="#161b16" rx="2"/>
<rect x="602" y="85" width="11" height="11" fill="#161b16" rx="2"/>
<rect x="602" y="98" width="11" height="11" fill="#161b16" rx="2"/>
<rect x="615" y="20" width="11" height="11" fill="#161b16" rx="2"/>
<rect x="615" y="33" width="11" height="11" fill="#161b16" rx="2"/>
<rect x="615" y="46" width="11" height="11" fill="#161b16" rx="2"/>
<rect x="615" y="59" width="11" height="11" fill="#161b16" rx="2"/>
<rect x="615" y="72" width="11" height="11" fill="#161b16" rx="2"/>
<rect x="615" y="85" width="11" height="11" fill="#161b16" rx="2"/>
<rect x="615" y="98" width="11" height="11" fill="#161b16" rx="2"/>
<rect x="628" y="20" width="11" height="11" fill="#161b16" rx="2"/>
<rect x="628" y="33" width="11" height="11" fill="#161b16" rx="2"/>
<rect x="628" y="46" width="11" height="11" fill="#161b16" rx="2"/>
<rect x="628" y="59" width="11" height="11" fill="#161b16" rx="2"/>
<rect x="628" y="72" width="11" height="11" fill="#161b16" rx="2"/>
<rect x="628" y="85" width="11" height="11" fill="#161b16" rx="2"/>
<rect x="628" y="98" width="11" height="11" fill="#161b16" rx="2"/>
<rect x="641" y="20" width="11" height="11" fill="#161b16" rx="2"/>
<rect x="641" y="33" width="11" height="11" fill="#161b16" rx="2"/>
<rect x="641" y="46" width="11" height="11" fill="#161b16" rx="2"/>
<rect x="641" y="59" width="11" height="11" fill="#161b16" rx="2"/>
<rect x="641" y="72" width="11" height="11" fill="#161b16" rx="2"/>
<rect x="641" y="85" width="11" height="11" fill="#161b16" rx="2"/>
<rect x="641" y="98" width="11" height="11" fill="#161b16" rx="2"/>
<rect x="654" y="20" width="11" height="11" fill="#161b16" rx="2"/>
<rect x="654" y="33" width="11" height="11" fill="#161b16" rx="2"/>
<rect x="654" y="46" width="11" height="11" fill="#161b16" rx="2"/>
<rect x="654" y="59" width="11" height="11" fill="#161b16" rx="2"/>
<rect x="654" y="72" width="11" height="11" fill="#161b16" rx="2"/>
<rect x="654" y="85" width="11" height="11" fill="#161b16" rx="2"/>
<rect x="654" y="98" width="11" height="11" fill="#161b16" rx="2"/>
<rect x="667" y="20" width="11" height="11" fill="#161b16" rx="2"/>
<rect x="667" y="33" width="11" height="11" fill="#161b16" rx="2"/>
<rect x="667" y="46" width="11" height="11" fill="#161b16" rx="2"/>
<rect x="667" y="59" width="11" height="11" fill="#161b16" rx="2"/>
<rect x="667" y="72" width="11" height="11" fill="#161b16" rx="2"/>
<rect x="667" y="85" width="11" height="11" fill="#161b16" rx="2"/>
<rect x="667" y="98" width="11" height="11" fill="#161b16" rx="2"/>
<rect x="680" y="20" width="11" height="11" fill="#00401a" rx="2"/>
<rect x="680" y="33" width="11" height="11" fill="#161b16" rx="2"/>
<rect x="680" y="46" width="11" height="11" fill="#161b16" rx="2"/>
<rect x="680" y="59" width="11" height="11" fill="#161b16" rx="2"/>
<rect x="680" y="72" width="11" height="11" fill="#161b16" rx="2"/>
<rect x="680" y="85" width="11" height="11" fill="#161b16" rx="2"/>
<rect x="680" y="98" width="11" height="11" fill="#006628" rx="2"/>
</svg>